<svg xmlns="http://www.w3.org/2000/svg" viewBox="0 0 55.349186 23.935749"><defs><clipPath id="c"><path d="M 0,4.58776 V 23.93575 H 56.752105 V 0 H 4.587426 C 1.591372,0 0,1.59046 0,4.58776 Z M 12.475104,4.24472 54.413145,16.37216 52.985455,21.30769 11.047412,9.18025 Z"/></clipPath></defs><g clip-path="url(#c)"><g transform="translate(2.432516,3.678)"><circle r="7.7659583" fill="#710f02"/><g stroke="#4a4a4a" stroke-width="0.265" fill="none"><circle r="13.096874"/><circle r="19.711458"/><circle r="26.326042"/><circle r="32.940624"/><circle r="39.555206"/><circle r="46.169788"/><circle r="52.784378"/></g></g></g><g fill="#ffa69a"><path d="M 16.382228,9.28667 14.920317,7.48609 16.382228,5.67987 C 16.455606,5.58391 16.444317,5.4428 16.348361,5.36378 16.252406,5.28475 16.10565,5.30169 16.026628,5.39764 L 14.626806,7.12484 13.226983,5.39764 C 13.147961,5.30169 13.00685,5.28475 12.910895,5.36378 12.814939,5.4428 12.798006,5.58391 12.877028,5.67987 L 14.338939,7.48609 12.877028,9.28667 C 12.798006,9.38262 12.814939,9.52373 12.910895,9.60275 13.00685,9.68178 13.147961,9.66484 13.226983,9.56889 L 14.626806,7.84169 16.026628,9.56889 C 16.10565,9.66484 16.252406,9.68178 16.348361,9.60275 16.444317,9.52373 16.455606,9.38262 16.382228,9.28667 Z"/><path d="M 22.741813,7.2508 C 22.640213,7.17178 22.499102,7.19436 22.425724,7.29596 L 21.025902,9.17556 19.620435,7.29596 C 19.547058,7.19436 19.405947,7.17178 19.304347,7.24516 19.202747,7.32418 19.185813,7.46529 19.259191,7.56125 L 20.800124,9.62711 V 11.32045 C 20.800124,11.44462 20.89608,11.54622 21.020258,11.54622 21.15008,11.54622 21.246035,11.44462 21.246035,11.32045 V 9.62711 L 22.786969,7.56125 C 22.860347,7.46529 22.843413,7.32418 22.741813,7.2508 Z"/><path d="M 41.925735,12.92349 C 41.824135,12.84446 41.683025,12.86704 41.609645,12.96864 L 40.209825,14.84824 38.804355,12.96864 C 38.730975,12.86704 38.589865,12.84446 38.488265,12.91784 38.386665,12.99686 38.369735,13.13797 38.443115,13.23393 L 39.984045,15.2998 V 16.99313 C 39.984045,17.11731 40.080005,17.21891 40.204175,17.21891 40.334005,17.21891 40.429955,17.11731 40.429955,16.99313 V 15.2998 L 41.970895,13.23393 C 42.044265,13.13797 42.027335,12.99686 41.925735,12.92349 Z"/><path d="M 54.715005,16.70527 C 54.613405,16.62625 54.472295,16.64883 54.398915,16.75043 L 52.999095,18.63003 51.593625,16.75043 C 51.520245,16.64883 51.379135,16.62625 51.277535,16.69963 51.175935,16.77865 51.159005,16.91976 51.232385,17.01571 L 52.773315,19.08158 V 20.77491 C 52.773315,20.89909 52.869275,21.00069 52.993445,21.00069 53.123275,21.00069 53.219225,20.89909 53.219225,20.77491 V 19.08158 L 54.760155,17.01571 C 54.833535,16.91976 54.816605,16.77865 54.715005,16.70527 Z"/><path d="M 35.353292,14.87467 H 32.739914 L 35.539558,11.3356 C 35.56778,11.30173 35.579069,11.25658 35.579069,11.21142 35.579069,11.08725 35.477469,10.98565 35.353292,10.98565 H 32.299647 C 32.175469,10.98565 32.073869,11.08725 32.073869,11.21142 32.073869,11.3356 32.175469,11.4372 32.299647,11.4372 H 34.890447 L 32.085158,14.97627 C 32.06258,15.01013 32.045647,15.05529 32.045647,15.10045 32.045647,15.22462 32.147247,15.32622 32.271425,15.32622 H 35.353292 C 35.477469,15.32622 35.579069,15.22462 35.579069,15.10045 35.579069,14.97627 35.477469,14.87467 35.353292,14.87467 Z"/><path d="M 28.958654,12.98378 H 26.345276 L 29.14492,9.44472 C 29.173142,9.41085 29.184431,9.36569 29.184431,9.32054 29.184431,9.19636 29.082831,9.09476 28.958654,9.09476 H 25.905009 C 25.780831,9.09476 25.679231,9.19636 25.679231,9.32054 25.679231,9.44472 25.780831,9.54632 25.905009,9.54632 H 28.495809 L 25.69052,13.08538 C 25.667942,13.11925 25.651009,13.16441 25.651009,13.20956 25.651009,13.33374 25.752609,13.43534 25.876787,13.43534 H 28.958654 C 29.082831,13.43534 29.184431,13.33374 29.184431,13.20956 29.184431,13.08538 29.082831,12.98378 28.958654,12.98378 Z"/><path d="M 48.357055,16.94056 C 48.357055,16.81073 48.255455,16.71478 48.131275,16.71478 H 46.697585 C 46.573415,16.71478 46.471815,16.81073 46.471815,16.94056 46.471815,17.06473 46.573415,17.16069 46.697585,17.16069 H 47.905505 V 17.9114 C 47.905505,18.32344 47.572475,18.65647 47.160435,18.65647 H 46.042835 C 45.630785,18.65647 45.297765,18.32344 45.297765,17.9114 V 15.96407 C 45.297765,15.55202 45.630785,15.219 46.042835,15.219 H 47.950655 C 48.074835,15.219 48.176435,15.1174 48.176435,14.99322 48.176435,14.86904 48.074835,14.76744 47.950655,14.76744 H 46.042835 C 45.726745,14.76744 45.421945,14.89162 45.196165,15.1174 44.970385,15.34318 44.846215,15.64798 44.846215,15.96407 V 17.9114 C 44.846215,18.22749 44.970385,18.53229 45.196165,18.75807 45.421945,18.98384 45.726745,19.10802 46.042835,19.10802 H 47.160435 C 47.476525,19.10802 47.781325,18.98384 48.007105,18.75807 48.232875,18.53229 48.357055,18.22749 48.357055,17.9114 Z"/></g></svg>
